<?xml version="1.0" encoding="UTF-8" standalone="no"?>
<svg
   xmlns:dc="http://purl.org/dc/elements/1.1/"
   xmlns:cc="http://creativecommons.org/ns#"
   xmlns:rdf="http://www.w3.org/1999/02/22-rdf-syntax-ns#"
   xmlns:svg="http://www.w3.org/2000/svg"
   xmlns="http://www.w3.org/2000/svg"
   xmlns:sodipodi="http://sodipodi.sourceforge.net/DTD/sodipodi-0.dtd"
   xmlns:inkscape="http://www.inkscape.org/namespaces/inkscape"
   inkscape:version="1.0 (4035a4fb49, 2020-05-01)"
   sodipodi:docname="mountain-logo.svg"
   id="svg54"
   preserveAspectRatio="xMidYMid meet"
   viewBox="0 0 860 500"
   height="500pt"
   width="860pt"
   version="1.0">
  <defs
     id="defs58" />
  <sodipodi:namedview
     inkscape:current-layer="svg54"
     inkscape:window-maximized="1"
     inkscape:window-y="-9"
     inkscape:window-x="2391"
     inkscape:cy="177.33333"
     inkscape:cx="390.60706"
     inkscape:zoom="1.0534884"
     inkscape:snap-text-baseline="true"
     showgrid="false"
     id="namedview56"
     inkscape:window-height="1361"
     inkscape:window-width="2560"
     inkscape:pageshadow="2"
     inkscape:pageopacity="0"
     guidetolerance="10"
     gridtolerance="10"
     objecttolerance="10"
     borderopacity="1"
     bordercolor="#666666"
     pagecolor="#000000" />
  <metadata
     id="metadata48">
Created by potrace 1.16, written by Peter Selinger 2001-2019
<rdf:RDF>
  <cc:Work
     rdf:about="">
    <dc:format>image/svg+xml</dc:format>
    <dc:type
       rdf:resource="http://purl.org/dc/dcmitype/StillImage" />
    <dc:title></dc:title>
  </cc:Work>
</rdf:RDF>
</metadata>
  <g
     id="g52"
     stroke="none"
     fill="#ffffff"
     transform="matrix(0.1,0,0,-0.1,2.3118947,248.91391)">
    <path
       id="path50"
       d="m 3705,2222 c -68,-87 -449,-472 -468,-471 -7,0 -95,33 -197,73 l -185,73 -24,-41 c -30,-49 -95,-145 -166,-241 -85,-116 -177,-221 -437,-500 l -47,-50 -48,46 c -159,151 -256,239 -263,239 -5,0 -25,-30 -46,-67 -57,-104 -197,-315 -293,-443 -150,-200 -277,-352 -510,-609 -52,-57 -85,-99 -73,-92 11,6 24,15 27,21 3,5 50,42 103,82 258,193 462,366 663,564 69,68 130,124 134,124 4,0 77,-34 163,-76 l 156,-75 154,153 c 194,193 460,489 557,620 l 20,27 174,-70 173,-69 47,37 c 58,47 310,298 379,378 l 51,60 18,-25 c 89,-126 367,-389 548,-517 l 85,-61 -57,-52 c -145,-132 -434,-340 -472,-340 -9,0 -45,29 -81,63 l -65,62 -86,-71 C 3415,789 3194,638 2885,460 2678,341 2673,338 2490,237 2264,114 2256,109 2245,99 c -20,-19 -27,-22 420,145 444,165 728,304 971,477 45,33 86,59 90,59 4,0 43,-23 88,-52 96,-61 251,-136 360,-172 44,-14 80,-25 82,-24 1,2 -62,64 -141,138 -79,74 -143,137 -144,140 0,3 43,34 96,70 255,171 597,421 736,538 49,41 94,71 102,68 8,-2 111,-82 231,-177 l 217,-173 -94,-90 c -52,-50 -156,-138 -232,-195 -75,-58 -135,-106 -133,-108 8,-8 297,91 441,152 79,33 334,164 390,200 l 58,37 71,-50 c 189,-130 239,-163 341,-224 204,-121 338,-191 860,-452 286,-143 529,-264 540,-269 37,-15 2,9 -177,121 -308,194 -871,571 -1076,721 -77,57 -388,294 -447,341 -24,19 -59,48 -78,63 l -35,28 -121,-81 -122,-81 -60,48 c -33,26 -75,59 -93,73 -48,37 -205,161 -339,267 l -118,94 -87,-80 c -138,-126 -264,-231 -277,-231 -17,0 -268,234 -355,331 -158,176 -298,350 -392,486 -24,35 -45,63 -48,63 -3,0 -32,-35 -65,-78 z" />
  </g>
  <text
     id="text62"
     y="288.32782"
     x="197.64062"
     style="font-style:normal;font-weight:normal;font-size:48px;line-height:1.25;font-family:sans-serif;fill:#ff19ec;fill-opacity:1;stroke:none;stroke-width:0.75"
     xml:space="preserve"><tspan
       style="font-size:48px;fill:#ffffff;fill-opacity:1;stroke-width:0.75"
       y="288.32782"
       x="197.64062"
       id="tspan60"
       sodipodi:role="line">SUMMIT BUILDERS</tspan></text>
  <text
     id="text889"
     y="340.45035"
     x="433.0849"
     style="font-style:normal;font-weight:normal;font-size:48px;line-height:1.25;font-family:sans-serif;text-align:center;letter-spacing:15px;text-anchor:middle;mix-blend-mode:darken;fill:#7edbec;fill-opacity:1;stroke:none;stroke-width:0.75"
     xml:space="preserve"><tspan
       style="font-size:48px;text-align:center;text-anchor:middle;fill:#7edbec;fill-opacity:1;stroke-width:0.75"
       y="340.45035"
       x="433.0849"
       id="tspan887"
       sodipodi:role="line">ALASKA</tspan><tspan
       id="tspan891"
       style="font-size:48px;text-align:center;text-anchor:middle;fill:#7edbec;fill-opacity:1;stroke-width:0.75"
       y="400.45035"
       x="433.0849"
       sodipodi:role="line" /><tspan
       id="tspan893"
       style="font-size:48px;text-align:center;text-anchor:middle;fill:#7edbec;fill-opacity:1;stroke-width:0.75"
       y="460.45035"
       x="433.0849"
       sodipodi:role="line" /></text>
  <rect
     y="323.51654"
     x="151.32283"
     height="2.1357617"
     width="139.53642"
     id="rect895"
     style="fill:#7edbec;fill-opacity:1;stroke-width:0.75" />
  <rect
     style="fill:#7edbec;fill-opacity:1;stroke-width:0.75"
     id="rect895-2"
     width="139.53642"
     height="2.1357617"
     x="569.14075"
     y="323.56787" />
</svg>
